<mxfile host="app.diagrams.net" agent="Mozilla/5.0 (Windows NT 10.0; Win64; x64) AppleWebKit/537.36 (KHTML, like Gecko) Chrome/127.0.0.0 Safari/537.36" version="24.7.12">
  <diagram name="Page-1" id="BllAMRC4RGPv38h2U0h_">
    <mxGraphModel dx="794" dy="412" grid="1" gridSize="10" guides="1" tooltips="1" connect="1" arrows="1" fold="1" page="1" pageScale="1" pageWidth="850" pageHeight="1100" math="0" shadow="0">
      <root>
        <mxCell id="0" />
        <mxCell id="1" parent="0" />
        <mxCell id="hIcRmIJ7nGnkxZMxn8qq-1" value="Win Client Wazuh Agent" style="sketch=0;pointerEvents=1;shadow=0;dashed=0;html=1;strokeColor=none;fillColor=#505050;labelPosition=center;verticalLabelPosition=bottom;verticalAlign=top;outlineConnect=0;align=center;shape=mxgraph.office.devices.workstation_pc;" vertex="1" parent="1">
          <mxGeometry x="406" y="570" width="120" height="90" as="geometry" />
        </mxCell>
        <mxCell id="hIcRmIJ7nGnkxZMxn8qq-11" style="edgeStyle=orthogonalEdgeStyle;rounded=0;orthogonalLoop=1;jettySize=auto;html=1;startArrow=oval;startFill=1;shape=link;" edge="1" parent="1" source="hIcRmIJ7nGnkxZMxn8qq-2" target="hIcRmIJ7nGnkxZMxn8qq-5">
          <mxGeometry relative="1" as="geometry">
            <Array as="points">
              <mxPoint x="470" y="350" />
              <mxPoint x="470" y="350" />
            </Array>
          </mxGeometry>
        </mxCell>
        <mxCell id="hIcRmIJ7nGnkxZMxn8qq-2" value="Router" style="sketch=0;points=[[0.5,0,0],[1,0.5,0],[0.5,1,0],[0,0.5,0],[0.145,0.145,0],[0.8555,0.145,0],[0.855,0.8555,0],[0.145,0.855,0]];verticalLabelPosition=bottom;html=1;verticalAlign=top;aspect=fixed;align=center;pointerEvents=1;shape=mxgraph.cisco19.rect;prIcon=router;fillColor=#FAFAFA;strokeColor=#005073;" vertex="1" parent="1">
          <mxGeometry x="441" y="410" width="50" height="50" as="geometry" />
        </mxCell>
        <mxCell id="hIcRmIJ7nGnkxZMxn8qq-22" value="8. Perform Responsive Action" style="rounded=0;orthogonalLoop=1;jettySize=auto;html=1;shape=link;fillColor=#a20025;strokeColor=#6F0000;" edge="1" parent="1" source="hIcRmIJ7nGnkxZMxn8qq-3" target="hIcRmIJ7nGnkxZMxn8qq-1">
          <mxGeometry relative="1" as="geometry">
            <Array as="points">
              <mxPoint x="290" y="460" />
            </Array>
          </mxGeometry>
        </mxCell>
        <mxCell id="hIcRmIJ7nGnkxZMxn8qq-3" value="Wazuh Manager" style="outlineConnect=0;dashed=0;verticalLabelPosition=bottom;verticalAlign=top;align=center;html=1;shape=mxgraph.aws3.internet_3;fillColor=#D2D3D3;gradientColor=none;" vertex="1" parent="1">
          <mxGeometry x="180" y="200" width="79.5" height="54" as="geometry" />
        </mxCell>
        <mxCell id="hIcRmIJ7nGnkxZMxn8qq-15" value="4. Enrich IOCS" style="rounded=0;orthogonalLoop=1;jettySize=auto;html=1;shape=link;fillColor=#d5e8d4;strokeColor=#82b366;" edge="1" parent="1" source="hIcRmIJ7nGnkxZMxn8qq-4" target="hIcRmIJ7nGnkxZMxn8qq-5">
          <mxGeometry relative="1" as="geometry" />
        </mxCell>
        <mxCell id="hIcRmIJ7nGnkxZMxn8qq-21" value="8. send response action" style="edgeStyle=orthogonalEdgeStyle;rounded=0;orthogonalLoop=1;jettySize=auto;html=1;shape=link;fillColor=#a20025;strokeColor=#6F0000;" edge="1" parent="1">
          <mxGeometry relative="1" as="geometry">
            <mxPoint x="438" y="46" as="sourcePoint" />
            <mxPoint x="217.79999999999995" y="199" as="targetPoint" />
          </mxGeometry>
        </mxCell>
        <mxCell id="hIcRmIJ7nGnkxZMxn8qq-4" value="Shuffle" style="outlineConnect=0;dashed=0;verticalLabelPosition=bottom;verticalAlign=top;align=center;html=1;shape=mxgraph.aws3.internet_3;fillColor=#D2D3D3;gradientColor=none;" vertex="1" parent="1">
          <mxGeometry x="440" y="20" width="79.5" height="54" as="geometry" />
        </mxCell>
        <mxCell id="hIcRmIJ7nGnkxZMxn8qq-12" value="2. Receiving events" style="edgeStyle=orthogonalEdgeStyle;rounded=0;orthogonalLoop=1;jettySize=auto;html=1;shape=link;" edge="1" parent="1" source="hIcRmIJ7nGnkxZMxn8qq-5" target="hIcRmIJ7nGnkxZMxn8qq-3">
          <mxGeometry relative="1" as="geometry" />
        </mxCell>
        <mxCell id="hIcRmIJ7nGnkxZMxn8qq-18" value="7. Send &amp;amp; receive email" style="rounded=0;orthogonalLoop=1;jettySize=auto;html=1;shape=link;fillColor=#f8cecc;strokeColor=#b85450;" edge="1" parent="1" source="hIcRmIJ7nGnkxZMxn8qq-5" target="hIcRmIJ7nGnkxZMxn8qq-7">
          <mxGeometry relative="1" as="geometry" />
        </mxCell>
        <mxCell id="hIcRmIJ7nGnkxZMxn8qq-19" value="8. Send Response Action" style="rounded=0;orthogonalLoop=1;jettySize=auto;html=1;shape=link;fillColor=#a20025;strokeColor=#6F0000;" edge="1" parent="1" source="hIcRmIJ7nGnkxZMxn8qq-5" target="hIcRmIJ7nGnkxZMxn8qq-7">
          <mxGeometry relative="1" as="geometry">
            <Array as="points">
              <mxPoint x="540" y="380" />
            </Array>
          </mxGeometry>
        </mxCell>
        <mxCell id="hIcRmIJ7nGnkxZMxn8qq-20" style="rounded=0;orthogonalLoop=1;jettySize=auto;html=1;shape=link;fillColor=#a20025;strokeColor=#6F0000;" edge="1" parent="1" source="hIcRmIJ7nGnkxZMxn8qq-5" target="hIcRmIJ7nGnkxZMxn8qq-4">
          <mxGeometry relative="1" as="geometry">
            <Array as="points">
              <mxPoint x="390" y="170" />
            </Array>
          </mxGeometry>
        </mxCell>
        <mxCell id="hIcRmIJ7nGnkxZMxn8qq-5" value="Internet" style="outlineConnect=0;dashed=0;verticalLabelPosition=bottom;verticalAlign=top;align=center;html=1;shape=mxgraph.aws3.internet_3;fillColor=#D2D3D3;gradientColor=none;" vertex="1" parent="1">
          <mxGeometry x="440" y="204" width="79.5" height="50" as="geometry" />
        </mxCell>
        <mxCell id="hIcRmIJ7nGnkxZMxn8qq-6" value="The Hive" style="outlineConnect=0;dashed=0;verticalLabelPosition=bottom;verticalAlign=top;align=center;html=1;shape=mxgraph.aws3.internet_3;fillColor=#D2D3D3;gradientColor=none;" vertex="1" parent="1">
          <mxGeometry x="640" y="180" width="79.5" height="54" as="geometry" />
        </mxCell>
        <mxCell id="hIcRmIJ7nGnkxZMxn8qq-7" value="SOC Analyst" style="sketch=0;pointerEvents=1;shadow=0;dashed=0;html=1;strokeColor=none;fillColor=#505050;labelPosition=center;verticalLabelPosition=bottom;verticalAlign=top;outlineConnect=0;align=center;shape=mxgraph.office.devices.workstation_pc;" vertex="1" parent="1">
          <mxGeometry x="640" y="390" width="120" height="90" as="geometry" />
        </mxCell>
        <mxCell id="hIcRmIJ7nGnkxZMxn8qq-8" style="edgeStyle=orthogonalEdgeStyle;rounded=0;orthogonalLoop=1;jettySize=auto;html=1;entryX=0.5;entryY=1.2;entryDx=0;entryDy=0;entryPerimeter=0;startArrow=classic;startFill=1;shape=link;" edge="1" parent="1" source="hIcRmIJ7nGnkxZMxn8qq-1" target="hIcRmIJ7nGnkxZMxn8qq-2">
          <mxGeometry relative="1" as="geometry" />
        </mxCell>
        <mxCell id="hIcRmIJ7nGnkxZMxn8qq-10" value="1. Send Events" style="edgeLabel;html=1;align=center;verticalAlign=middle;resizable=0;points=[];" vertex="1" connectable="0" parent="hIcRmIJ7nGnkxZMxn8qq-8">
          <mxGeometry x="0.0584" y="-3" relative="1" as="geometry">
            <mxPoint x="-3" as="offset" />
          </mxGeometry>
        </mxCell>
        <mxCell id="hIcRmIJ7nGnkxZMxn8qq-14" value="3. Send alerts" style="rounded=0;orthogonalLoop=1;jettySize=auto;html=1;entryX=0;entryY=0.7;entryDx=0;entryDy=0;entryPerimeter=0;shape=link;fillColor=#dae8fc;strokeColor=#6c8ebf;exitX=0.77;exitY=0.25;exitDx=0;exitDy=0;exitPerimeter=0;" edge="1" parent="1" source="hIcRmIJ7nGnkxZMxn8qq-3" target="hIcRmIJ7nGnkxZMxn8qq-4">
          <mxGeometry relative="1" as="geometry">
            <mxPoint x="239.99627659574466" y="204" as="sourcePoint" />
            <mxPoint x="425.1" y="61.80000000000001" as="targetPoint" />
          </mxGeometry>
        </mxCell>
        <mxCell id="hIcRmIJ7nGnkxZMxn8qq-16" value="5. Send alerts" style="rounded=0;orthogonalLoop=1;jettySize=auto;html=1;entryX=0.377;entryY=0.185;entryDx=0;entryDy=0;entryPerimeter=0;shape=link;fillColor=#dae8fc;strokeColor=#6c8ebf;" edge="1" parent="1" source="hIcRmIJ7nGnkxZMxn8qq-4" target="hIcRmIJ7nGnkxZMxn8qq-6">
          <mxGeometry relative="1" as="geometry" />
        </mxCell>
        <mxCell id="hIcRmIJ7nGnkxZMxn8qq-17" value="6. Send email" style="rounded=0;orthogonalLoop=1;jettySize=auto;html=1;entryX=0.77;entryY=0.25;entryDx=0;entryDy=0;entryPerimeter=0;fillColor=#f8cecc;strokeColor=#b85450;shape=link;" edge="1" parent="1" source="hIcRmIJ7nGnkxZMxn8qq-4" target="hIcRmIJ7nGnkxZMxn8qq-5">
          <mxGeometry relative="1" as="geometry">
            <Array as="points">
              <mxPoint x="560" y="160" />
            </Array>
          </mxGeometry>
        </mxCell>
        <mxCell id="hIcRmIJ7nGnkxZMxn8qq-27" value="" style="edgeStyle=orthogonalEdgeStyle;rounded=0;orthogonalLoop=1;jettySize=auto;html=1;" edge="1" parent="1" source="hIcRmIJ7nGnkxZMxn8qq-23" target="hIcRmIJ7nGnkxZMxn8qq-26">
          <mxGeometry relative="1" as="geometry" />
        </mxCell>
        <mxCell id="hIcRmIJ7nGnkxZMxn8qq-23" value="The Client&lt;div&gt;Send alerts&amp;nbsp;&lt;/div&gt;&lt;div&gt;&lt;br&gt;&lt;/div&gt;" style="text;html=1;align=center;verticalAlign=middle;resizable=0;points=[];autosize=1;strokeColor=none;fillColor=none;" vertex="1" parent="1">
          <mxGeometry x="7" y="753" width="90" height="60" as="geometry" />
        </mxCell>
        <mxCell id="hIcRmIJ7nGnkxZMxn8qq-30" value="" style="edgeStyle=orthogonalEdgeStyle;rounded=0;orthogonalLoop=1;jettySize=auto;html=1;" edge="1" parent="1" source="hIcRmIJ7nGnkxZMxn8qq-26" target="hIcRmIJ7nGnkxZMxn8qq-29">
          <mxGeometry relative="1" as="geometry" />
        </mxCell>
        <mxCell id="hIcRmIJ7nGnkxZMxn8qq-26" value="&lt;div&gt;Wazuh Manager&lt;/div&gt;&lt;div&gt;Trigger alerts &amp;amp; perform&lt;span style=&quot;background-color: initial;&quot;&gt;&amp;nbsp;response actions&lt;/span&gt;&lt;/div&gt;" style="text;html=1;align=center;verticalAlign=middle;resizable=0;points=[];autosize=1;strokeColor=none;fillColor=none;" vertex="1" parent="1">
          <mxGeometry x="166" y="763" width="240" height="40" as="geometry" />
        </mxCell>
        <mxCell id="hIcRmIJ7nGnkxZMxn8qq-32" value="" style="edgeStyle=orthogonalEdgeStyle;rounded=0;orthogonalLoop=1;jettySize=auto;html=1;" edge="1" parent="1" source="hIcRmIJ7nGnkxZMxn8qq-29" target="hIcRmIJ7nGnkxZMxn8qq-31">
          <mxGeometry relative="1" as="geometry" />
        </mxCell>
        <mxCell id="hIcRmIJ7nGnkxZMxn8qq-34" value="" style="edgeStyle=orthogonalEdgeStyle;rounded=0;orthogonalLoop=1;jettySize=auto;html=1;" edge="1" parent="1" source="hIcRmIJ7nGnkxZMxn8qq-29" target="hIcRmIJ7nGnkxZMxn8qq-33">
          <mxGeometry relative="1" as="geometry" />
        </mxCell>
        <mxCell id="hIcRmIJ7nGnkxZMxn8qq-36" value="" style="edgeStyle=orthogonalEdgeStyle;rounded=0;orthogonalLoop=1;jettySize=auto;html=1;" edge="1" parent="1" source="hIcRmIJ7nGnkxZMxn8qq-29" target="hIcRmIJ7nGnkxZMxn8qq-35">
          <mxGeometry relative="1" as="geometry" />
        </mxCell>
        <mxCell id="hIcRmIJ7nGnkxZMxn8qq-29" value="&lt;div&gt;Shuffle&lt;/div&gt;&lt;div&gt;Receive wazuh alerts &amp;amp; send responseive actions&lt;/div&gt;" style="text;html=1;align=center;verticalAlign=middle;resizable=0;points=[];autosize=1;strokeColor=none;fillColor=none;" vertex="1" parent="1">
          <mxGeometry x="480" y="763" width="290" height="40" as="geometry" />
        </mxCell>
        <mxCell id="hIcRmIJ7nGnkxZMxn8qq-31" value="&lt;div&gt;OSINT&lt;/div&gt;&lt;div&gt;Enrich IOCS&lt;/div&gt;" style="text;html=1;align=center;verticalAlign=middle;resizable=0;points=[];autosize=1;strokeColor=none;fillColor=none;" vertex="1" parent="1">
          <mxGeometry x="580" y="680" width="90" height="40" as="geometry" />
        </mxCell>
        <mxCell id="hIcRmIJ7nGnkxZMxn8qq-33" value="The Hive&lt;div&gt;Create alert in case management&lt;/div&gt;" style="text;html=1;align=center;verticalAlign=middle;resizable=0;points=[];autosize=1;strokeColor=none;fillColor=none;" vertex="1" parent="1">
          <mxGeometry x="525" y="883" width="200" height="40" as="geometry" />
        </mxCell>
        <mxCell id="hIcRmIJ7nGnkxZMxn8qq-35" value="&lt;div&gt;Email&lt;/div&gt;&lt;div&gt;Send email &amp;amp; responsive actions&lt;/div&gt;" style="text;html=1;align=center;verticalAlign=middle;resizable=0;points=[];autosize=1;strokeColor=none;fillColor=none;" vertex="1" parent="1">
          <mxGeometry x="895" y="763" width="200" height="40" as="geometry" />
        </mxCell>
      </root>
    </mxGraphModel>
  </diagram>
</mxfile>
